<?xml version="1.0" encoding="UTF-8"?><svg xmlns="http://www.w3.org/2000/svg" xmlns:xlink="http://www.w3.org/1999/xlink" stroke-dasharray="none" shape-rendering="auto" font-family="'Dialog'" width="768" text-rendering="auto" fill-opacity="1" contentScriptType="text/ecmascript" color-interpolation="auto" color-rendering="auto" preserveAspectRatio="xMidYMid meet" font-size="12" fill="black" stroke="black" image-rendering="auto" stroke-miterlimit="10" zoomAndPan="magnify" version="1.0" stroke-linecap="square" stroke-linejoin="miter" contentStyleType="text/css" font-style="normal" height="576" stroke-width="1" stroke-dashoffset="0" font-weight="normal" stroke-opacity="1">
    <!--Generated by the Batik Graphics2D SVG Generator-->
    <defs id="genericDefs"/>
    <g>
        <defs id="defs1">
            <clipPath clipPathUnits="userSpaceOnUse" id="clipPath1">
                <path d="M40 37 L745 37 L745 537 L40 537 L40 37 Z"/>
            </clipPath>
            <clipPath clipPathUnits="userSpaceOnUse" id="clipPath2">
                <path d="M-1 -1 L769 -1 L769 577 L-1 577 L-1 -1 Z"/>
            </clipPath>
            <clipPath clipPathUnits="userSpaceOnUse" id="clipPath3">
                <path d="M378 4 L391 4 L391 12 L378 12 L378 4 Z"/>
            </clipPath>
        </defs>
        <g font-size="14" fill="white" text-rendering="geometricPrecision" stroke-linejoin="round" stroke="white" stroke-width="0" stroke-miterlimit="0">
            <rect x="41" y="38" clip-path="url(#clipPath1)" width="703" height="498" stroke="none"/>
        </g>
        <g stroke-linecap="butt" font-size="14" fill="rgb(204,204,204)" text-rendering="geometricPrecision" stroke-dasharray="3,3" stroke="rgb(204,204,204)">
            <line clip-path="url(#clipPath1)" fill="none" x1="41" x2="41" y1="38" y2="536"/>
            <line clip-path="url(#clipPath1)" fill="none" x1="110" x2="110" y1="38" y2="536"/>
            <line clip-path="url(#clipPath1)" fill="none" x1="179" x2="179" y1="38" y2="536"/>
            <line clip-path="url(#clipPath1)" fill="none" x1="249" x2="249" y1="38" y2="536"/>
            <line clip-path="url(#clipPath1)" fill="none" x1="318" x2="318" y1="38" y2="536"/>
            <line clip-path="url(#clipPath1)" fill="none" x1="388" x2="388" y1="38" y2="536"/>
            <line clip-path="url(#clipPath1)" fill="none" x1="457" x2="457" y1="38" y2="536"/>
            <line clip-path="url(#clipPath1)" fill="none" x1="527" x2="527" y1="38" y2="536"/>
            <line clip-path="url(#clipPath1)" fill="none" x1="596" x2="596" y1="38" y2="536"/>
            <line clip-path="url(#clipPath1)" fill="none" x1="665" x2="665" y1="38" y2="536"/>
            <line clip-path="url(#clipPath1)" fill="none" x1="735" x2="735" y1="38" y2="536"/>
            <line clip-path="url(#clipPath1)" fill="none" x1="41" x2="744" y1="536" y2="536"/>
            <line clip-path="url(#clipPath1)" fill="none" x1="41" x2="744" y1="162" y2="162"/>
            <rect x="41" y="38" clip-path="url(#clipPath2)" fill="none" width="703" stroke-dasharray="none" height="498" stroke="black"/>
            <rect x="379" y="5" clip-path="url(#clipPath3)" fill="white" width="10" stroke-dasharray="none" height="5" stroke="none"/>
        </g>
        <g text-rendering="geometricPrecision" font-size="13" stroke-linecap="butt">
            <line clip-path="url(#clipPath2)" fill="none" x1="41" x2="744" y1="36" y2="36"/>
            <line clip-path="url(#clipPath2)" fill="none" x1="41" x2="744" y1="538" y2="538"/>
            <text xml:space="preserve" x="389" y="572" clip-path="url(#clipPath2)" stroke="none">N</text>
            <line clip-path="url(#clipPath2)" fill="none" x1="41" x2="41" y1="32" y2="36"/>
            <line clip-path="url(#clipPath2)" fill="none" x1="41" x2="41" y1="542" y2="538"/>
            <text x="33" font-size="10" y="28" clip-path="url(#clipPath2)" stroke="none" xml:space="preserve">0.0</text>
            <text x="33" font-size="10" y="553" clip-path="url(#clipPath2)" stroke="none" xml:space="preserve">0.0</text>
            <line clip-path="url(#clipPath2)" fill="none" x1="54" x2="54" y1="34" y2="36"/>
            <line clip-path="url(#clipPath2)" fill="none" x1="54" x2="54" y1="540" y2="538"/>
            <line clip-path="url(#clipPath2)" fill="none" x1="68" x2="68" y1="34" y2="36"/>
            <line clip-path="url(#clipPath2)" fill="none" x1="68" x2="68" y1="540" y2="538"/>
            <line clip-path="url(#clipPath2)" fill="none" x1="82" x2="82" y1="34" y2="36"/>
            <line clip-path="url(#clipPath2)" fill="none" x1="82" x2="82" y1="540" y2="538"/>
            <line clip-path="url(#clipPath2)" fill="none" x1="96" x2="96" y1="34" y2="36"/>
            <line clip-path="url(#clipPath2)" fill="none" x1="96" x2="96" y1="540" y2="538"/>
            <line clip-path="url(#clipPath2)" fill="none" x1="110" x2="110" y1="32" y2="36"/>
            <line clip-path="url(#clipPath2)" fill="none" x1="110" x2="110" y1="542" y2="538"/>
            <text x="99" font-size="10" y="28" clip-path="url(#clipPath2)" stroke="none" xml:space="preserve">0.10</text>
            <text x="99" font-size="10" y="553" clip-path="url(#clipPath2)" stroke="none" xml:space="preserve">0.10</text>
            <line clip-path="url(#clipPath2)" fill="none" x1="124" x2="124" y1="34" y2="36"/>
            <line clip-path="url(#clipPath2)" fill="none" x1="124" x2="124" y1="540" y2="538"/>
            <line clip-path="url(#clipPath2)" fill="none" x1="138" x2="138" y1="34" y2="36"/>
            <line clip-path="url(#clipPath2)" fill="none" x1="138" x2="138" y1="540" y2="538"/>
            <line clip-path="url(#clipPath2)" fill="none" x1="152" x2="152" y1="34" y2="36"/>
            <line clip-path="url(#clipPath2)" fill="none" x1="152" x2="152" y1="540" y2="538"/>
            <line clip-path="url(#clipPath2)" fill="none" x1="165" x2="165" y1="34" y2="36"/>
            <line clip-path="url(#clipPath2)" fill="none" x1="165" x2="165" y1="540" y2="538"/>
            <line clip-path="url(#clipPath2)" fill="none" x1="179" x2="179" y1="32" y2="36"/>
            <line clip-path="url(#clipPath2)" fill="none" x1="179" x2="179" y1="542" y2="538"/>
            <text x="168" font-size="10" y="28" clip-path="url(#clipPath2)" stroke="none" xml:space="preserve">0.20</text>
            <text x="168" font-size="10" y="553" clip-path="url(#clipPath2)" stroke="none" xml:space="preserve">0.20</text>
            <line clip-path="url(#clipPath2)" fill="none" x1="193" x2="193" y1="34" y2="36"/>
            <line clip-path="url(#clipPath2)" fill="none" x1="193" x2="193" y1="540" y2="538"/>
            <line clip-path="url(#clipPath2)" fill="none" x1="207" x2="207" y1="34" y2="36"/>
            <line clip-path="url(#clipPath2)" fill="none" x1="207" x2="207" y1="540" y2="538"/>
            <line clip-path="url(#clipPath2)" fill="none" x1="221" x2="221" y1="34" y2="36"/>
            <line clip-path="url(#clipPath2)" fill="none" x1="221" x2="221" y1="540" y2="538"/>
            <line clip-path="url(#clipPath2)" fill="none" x1="235" x2="235" y1="34" y2="36"/>
            <line clip-path="url(#clipPath2)" fill="none" x1="235" x2="235" y1="540" y2="538"/>
            <line clip-path="url(#clipPath2)" fill="none" x1="249" x2="249" y1="32" y2="36"/>
            <line clip-path="url(#clipPath2)" fill="none" x1="249" x2="249" y1="542" y2="538"/>
            <text x="238" font-size="10" y="28" clip-path="url(#clipPath2)" stroke="none" xml:space="preserve">0.30</text>
            <text x="238" font-size="10" y="553" clip-path="url(#clipPath2)" stroke="none" xml:space="preserve">0.30</text>
            <line clip-path="url(#clipPath2)" fill="none" x1="263" x2="263" y1="34" y2="36"/>
            <line clip-path="url(#clipPath2)" fill="none" x1="263" x2="263" y1="540" y2="538"/>
            <line clip-path="url(#clipPath2)" fill="none" x1="277" x2="277" y1="34" y2="36"/>
            <line clip-path="url(#clipPath2)" fill="none" x1="277" x2="277" y1="540" y2="538"/>
            <line clip-path="url(#clipPath2)" fill="none" x1="290" x2="290" y1="34" y2="36"/>
            <line clip-path="url(#clipPath2)" fill="none" x1="290" x2="290" y1="540" y2="538"/>
            <line clip-path="url(#clipPath2)" fill="none" x1="304" x2="304" y1="34" y2="36"/>
            <line clip-path="url(#clipPath2)" fill="none" x1="304" x2="304" y1="540" y2="538"/>
            <line clip-path="url(#clipPath2)" fill="none" x1="318" x2="318" y1="32" y2="36"/>
            <line clip-path="url(#clipPath2)" fill="none" x1="318" x2="318" y1="542" y2="538"/>
            <text x="307" font-size="10" y="28" clip-path="url(#clipPath2)" stroke="none" xml:space="preserve">0.40</text>
            <text x="307" font-size="10" y="553" clip-path="url(#clipPath2)" stroke="none" xml:space="preserve">0.40</text>
            <line clip-path="url(#clipPath2)" fill="none" x1="332" x2="332" y1="34" y2="36"/>
            <line clip-path="url(#clipPath2)" fill="none" x1="332" x2="332" y1="540" y2="538"/>
            <line clip-path="url(#clipPath2)" fill="none" x1="346" x2="346" y1="34" y2="36"/>
            <line clip-path="url(#clipPath2)" fill="none" x1="346" x2="346" y1="540" y2="538"/>
            <line clip-path="url(#clipPath2)" fill="none" x1="360" x2="360" y1="34" y2="36"/>
            <line clip-path="url(#clipPath2)" fill="none" x1="360" x2="360" y1="540" y2="538"/>
            <line clip-path="url(#clipPath2)" fill="none" x1="374" x2="374" y1="34" y2="36"/>
            <line clip-path="url(#clipPath2)" fill="none" x1="374" x2="374" y1="540" y2="538"/>
            <line clip-path="url(#clipPath2)" fill="none" x1="388" x2="388" y1="32" y2="36"/>
            <line clip-path="url(#clipPath2)" fill="none" x1="388" x2="388" y1="542" y2="538"/>
            <text x="377" font-size="10" y="28" clip-path="url(#clipPath2)" stroke="none" xml:space="preserve">0.50</text>
            <text x="377" font-size="10" y="553" clip-path="url(#clipPath2)" stroke="none" xml:space="preserve">0.50</text>
            <line clip-path="url(#clipPath2)" fill="none" x1="402" x2="402" y1="34" y2="36"/>
            <line clip-path="url(#clipPath2)" fill="none" x1="402" x2="402" y1="540" y2="538"/>
            <line clip-path="url(#clipPath2)" fill="none" x1="415" x2="415" y1="34" y2="36"/>
            <line clip-path="url(#clipPath2)" fill="none" x1="415" x2="415" y1="540" y2="538"/>
            <line clip-path="url(#clipPath2)" fill="none" x1="429" x2="429" y1="34" y2="36"/>
            <line clip-path="url(#clipPath2)" fill="none" x1="429" x2="429" y1="540" y2="538"/>
            <line clip-path="url(#clipPath2)" fill="none" x1="443" x2="443" y1="34" y2="36"/>
            <line clip-path="url(#clipPath2)" fill="none" x1="443" x2="443" y1="540" y2="538"/>
            <line clip-path="url(#clipPath2)" fill="none" x1="457" x2="457" y1="32" y2="36"/>
            <line clip-path="url(#clipPath2)" fill="none" x1="457" x2="457" y1="542" y2="538"/>
            <text x="446" font-size="10" y="28" clip-path="url(#clipPath2)" stroke="none" xml:space="preserve">0.60</text>
            <text x="446" font-size="10" y="553" clip-path="url(#clipPath2)" stroke="none" xml:space="preserve">0.60</text>
            <line clip-path="url(#clipPath2)" fill="none" x1="471" x2="471" y1="34" y2="36"/>
            <line clip-path="url(#clipPath2)" fill="none" x1="471" x2="471" y1="540" y2="538"/>
            <line clip-path="url(#clipPath2)" fill="none" x1="485" x2="485" y1="34" y2="36"/>
            <line clip-path="url(#clipPath2)" fill="none" x1="485" x2="485" y1="540" y2="538"/>
            <line clip-path="url(#clipPath2)" fill="none" x1="499" x2="499" y1="34" y2="36"/>
            <line clip-path="url(#clipPath2)" fill="none" x1="499" x2="499" y1="540" y2="538"/>
            <line clip-path="url(#clipPath2)" fill="none" x1="513" x2="513" y1="34" y2="36"/>
            <line clip-path="url(#clipPath2)" fill="none" x1="513" x2="513" y1="540" y2="538"/>
            <line clip-path="url(#clipPath2)" fill="none" x1="527" x2="527" y1="32" y2="36"/>
            <line clip-path="url(#clipPath2)" fill="none" x1="527" x2="527" y1="542" y2="538"/>
            <text x="516" font-size="10" y="28" clip-path="url(#clipPath2)" stroke="none" xml:space="preserve">0.70</text>
            <text x="516" font-size="10" y="553" clip-path="url(#clipPath2)" stroke="none" xml:space="preserve">0.70</text>
            <line clip-path="url(#clipPath2)" fill="none" x1="540" x2="540" y1="34" y2="36"/>
            <line clip-path="url(#clipPath2)" fill="none" x1="540" x2="540" y1="540" y2="538"/>
            <line clip-path="url(#clipPath2)" fill="none" x1="554" x2="554" y1="34" y2="36"/>
            <line clip-path="url(#clipPath2)" fill="none" x1="554" x2="554" y1="540" y2="538"/>
            <line clip-path="url(#clipPath2)" fill="none" x1="568" x2="568" y1="34" y2="36"/>
            <line clip-path="url(#clipPath2)" fill="none" x1="568" x2="568" y1="540" y2="538"/>
            <line clip-path="url(#clipPath2)" fill="none" x1="582" x2="582" y1="34" y2="36"/>
            <line clip-path="url(#clipPath2)" fill="none" x1="582" x2="582" y1="540" y2="538"/>
            <line clip-path="url(#clipPath2)" fill="none" x1="596" x2="596" y1="32" y2="36"/>
            <line clip-path="url(#clipPath2)" fill="none" x1="596" x2="596" y1="542" y2="538"/>
            <text x="585" font-size="10" y="28" clip-path="url(#clipPath2)" stroke="none" xml:space="preserve">0.80</text>
            <text x="585" font-size="10" y="553" clip-path="url(#clipPath2)" stroke="none" xml:space="preserve">0.80</text>
            <line clip-path="url(#clipPath2)" fill="none" x1="610" x2="610" y1="34" y2="36"/>
            <line clip-path="url(#clipPath2)" fill="none" x1="610" x2="610" y1="540" y2="538"/>
            <line clip-path="url(#clipPath2)" fill="none" x1="624" x2="624" y1="34" y2="36"/>
            <line clip-path="url(#clipPath2)" fill="none" x1="624" x2="624" y1="540" y2="538"/>
            <line clip-path="url(#clipPath2)" fill="none" x1="638" x2="638" y1="34" y2="36"/>
            <line clip-path="url(#clipPath2)" fill="none" x1="638" x2="638" y1="540" y2="538"/>
            <line clip-path="url(#clipPath2)" fill="none" x1="652" x2="652" y1="34" y2="36"/>
            <line clip-path="url(#clipPath2)" fill="none" x1="652" x2="652" y1="540" y2="538"/>
            <line clip-path="url(#clipPath2)" fill="none" x1="665" x2="665" y1="32" y2="36"/>
            <line clip-path="url(#clipPath2)" fill="none" x1="665" x2="665" y1="542" y2="538"/>
            <text x="654" font-size="10" y="28" clip-path="url(#clipPath2)" stroke="none" xml:space="preserve">0.90</text>
            <text x="654" font-size="10" y="553" clip-path="url(#clipPath2)" stroke="none" xml:space="preserve">0.90</text>
            <line clip-path="url(#clipPath2)" fill="none" x1="679" x2="679" y1="34" y2="36"/>
            <line clip-path="url(#clipPath2)" fill="none" x1="679" x2="679" y1="540" y2="538"/>
            <line clip-path="url(#clipPath2)" fill="none" x1="693" x2="693" y1="34" y2="36"/>
            <line clip-path="url(#clipPath2)" fill="none" x1="693" x2="693" y1="540" y2="538"/>
            <line clip-path="url(#clipPath2)" fill="none" x1="707" x2="707" y1="34" y2="36"/>
            <line clip-path="url(#clipPath2)" fill="none" x1="707" x2="707" y1="540" y2="538"/>
            <line clip-path="url(#clipPath2)" fill="none" x1="721" x2="721" y1="34" y2="36"/>
            <line clip-path="url(#clipPath2)" fill="none" x1="721" x2="721" y1="540" y2="538"/>
            <line clip-path="url(#clipPath2)" fill="none" x1="735" x2="735" y1="32" y2="36"/>
            <line clip-path="url(#clipPath2)" fill="none" x1="735" x2="735" y1="542" y2="538"/>
            <text x="724" font-size="10" y="28" clip-path="url(#clipPath2)" stroke="none" xml:space="preserve">1.00</text>
            <text x="724" font-size="10" y="553" clip-path="url(#clipPath2)" stroke="none" xml:space="preserve">1.00</text>
            <line clip-path="url(#clipPath2)" fill="none" x1="39" x2="39" y1="38" y2="536"/>
            <line clip-path="url(#clipPath2)" fill="none" x1="746" x2="746" y1="38" y2="536"/>
            <line clip-path="url(#clipPath2)" fill="none" x1="35" x2="39" y1="536" y2="536"/>
            <line clip-path="url(#clipPath2)" fill="none" x1="750" x2="746" y1="536" y2="536"/>
            <text x="28" font-size="10" y="540" clip-path="url(#clipPath2)" stroke="none" xml:space="preserve">1</text>
            <text x="753" font-size="10" y="540" clip-path="url(#clipPath2)" stroke="none" xml:space="preserve">1</text>
            <line clip-path="url(#clipPath2)" fill="none" x1="37" x2="39" y1="423" y2="423"/>
            <line clip-path="url(#clipPath2)" fill="none" x1="748" x2="746" y1="423" y2="423"/>
            <line clip-path="url(#clipPath2)" fill="none" x1="37" x2="39" y1="274" y2="274"/>
            <line clip-path="url(#clipPath2)" fill="none" x1="748" x2="746" y1="274" y2="274"/>
            <line clip-path="url(#clipPath2)" fill="none" x1="35" x2="39" y1="162" y2="162"/>
            <line clip-path="url(#clipPath2)" fill="none" x1="750" x2="746" y1="162" y2="162"/>
            <text x="22" font-size="10" y="166" clip-path="url(#clipPath2)" stroke="none" xml:space="preserve">10</text>
            <text x="753" font-size="10" y="166" clip-path="url(#clipPath2)" stroke="none" xml:space="preserve">10</text>
            <line clip-path="url(#clipPath2)" fill="none" x1="37" x2="39" y1="50" y2="50"/>
            <line clip-path="url(#clipPath2)" fill="none" x1="748" x2="746" y1="50" y2="50"/>
        </g>
    </g>
</svg>
