<?xml version="1.0" encoding="UTF-8"?><svg xmlns="http://www.w3.org/2000/svg" xmlns:xlink="http://www.w3.org/1999/xlink" stroke-dasharray="none" shape-rendering="auto" font-family="'Dialog'" width="768" text-rendering="auto" fill-opacity="1" contentScriptType="text/ecmascript" color-interpolation="auto" color-rendering="auto" preserveAspectRatio="xMidYMid meet" font-size="12" fill="black" stroke="black" image-rendering="auto" stroke-miterlimit="10" zoomAndPan="magnify" version="1.0" stroke-linecap="square" stroke-linejoin="miter" contentStyleType="text/css" font-style="normal" height="576" stroke-width="1" stroke-dashoffset="0" font-weight="normal" stroke-opacity="1">
    <!--Generated by the Batik Graphics2D SVG Generator-->
    <defs id="genericDefs"/>
    <g>
        <defs id="defs1">
            <clipPath clipPathUnits="userSpaceOnUse" id="clipPath1">
                <path d="M47 37 L738 37 L738 537 L47 537 L47 37 Z"/>
            </clipPath>
            <clipPath clipPathUnits="userSpaceOnUse" id="clipPath2">
                <path d="M-1 -1 L769 -1 L769 577 L-1 577 L-1 -1 Z"/>
            </clipPath>
            <clipPath clipPathUnits="userSpaceOnUse" id="clipPath3">
                <path d="M378 4 L391 4 L391 12 L378 12 L378 4 Z"/>
            </clipPath>
        </defs>
        <g font-size="14" fill="white" text-rendering="geometricPrecision" stroke-linejoin="round" stroke="white" stroke-width="0" stroke-miterlimit="0">
            <rect x="48" y="38" clip-path="url(#clipPath1)" width="689" height="498" stroke="none"/>
        </g>
        <g stroke-linecap="butt" font-size="14" fill="rgb(204,204,204)" text-rendering="geometricPrecision" stroke-dasharray="3,3" stroke="rgb(204,204,204)">
            <line clip-path="url(#clipPath1)" fill="none" x1="48" x2="48" y1="38" y2="536"/>
            <line clip-path="url(#clipPath1)" fill="none" x1="116" x2="116" y1="38" y2="536"/>
            <line clip-path="url(#clipPath1)" fill="none" x1="184" x2="184" y1="38" y2="536"/>
            <line clip-path="url(#clipPath1)" fill="none" x1="252" x2="252" y1="38" y2="536"/>
            <line clip-path="url(#clipPath1)" fill="none" x1="320" x2="320" y1="38" y2="536"/>
            <line clip-path="url(#clipPath1)" fill="none" x1="388" x2="388" y1="38" y2="536"/>
            <line clip-path="url(#clipPath1)" fill="none" x1="456" x2="456" y1="38" y2="536"/>
            <line clip-path="url(#clipPath1)" fill="none" x1="524" x2="524" y1="38" y2="536"/>
            <line clip-path="url(#clipPath1)" fill="none" x1="592" x2="592" y1="38" y2="536"/>
            <line clip-path="url(#clipPath1)" fill="none" x1="660" x2="660" y1="38" y2="536"/>
            <line clip-path="url(#clipPath1)" fill="none" x1="728" x2="728" y1="38" y2="536"/>
            <line clip-path="url(#clipPath1)" fill="none" x1="48" x2="737" y1="536" y2="536"/>
            <line clip-path="url(#clipPath1)" fill="none" x1="48" x2="737" y1="461" y2="461"/>
            <line clip-path="url(#clipPath1)" fill="none" x1="48" x2="737" y1="386" y2="386"/>
            <line clip-path="url(#clipPath1)" fill="none" x1="48" x2="737" y1="311" y2="311"/>
            <line clip-path="url(#clipPath1)" fill="none" x1="48" x2="737" y1="237" y2="237"/>
            <line clip-path="url(#clipPath1)" fill="none" x1="48" x2="737" y1="162" y2="162"/>
            <line clip-path="url(#clipPath1)" fill="none" x1="48" x2="737" y1="87" y2="87"/>
            <rect x="48" y="38" clip-path="url(#clipPath2)" fill="none" width="689" stroke-dasharray="none" height="498" stroke="black"/>
            <rect x="379" y="5" clip-path="url(#clipPath3)" fill="white" width="10" stroke-dasharray="none" height="5" stroke="none"/>
        </g>
        <g text-rendering="geometricPrecision" font-size="13" stroke-linecap="butt">
            <line clip-path="url(#clipPath2)" fill="none" x1="48" x2="737" y1="36" y2="36"/>
            <line clip-path="url(#clipPath2)" fill="none" x1="48" x2="737" y1="538" y2="538"/>
            <text xml:space="preserve" x="389" y="572" clip-path="url(#clipPath2)" stroke="none">N</text>
            <line clip-path="url(#clipPath2)" fill="none" x1="48" x2="48" y1="32" y2="36"/>
            <line clip-path="url(#clipPath2)" fill="none" x1="48" x2="48" y1="542" y2="538"/>
            <text x="40" font-size="10" y="28" clip-path="url(#clipPath2)" stroke="none" xml:space="preserve">0.0</text>
            <text x="40" font-size="10" y="553" clip-path="url(#clipPath2)" stroke="none" xml:space="preserve">0.0</text>
            <line clip-path="url(#clipPath2)" fill="none" x1="61" x2="61" y1="34" y2="36"/>
            <line clip-path="url(#clipPath2)" fill="none" x1="61" x2="61" y1="540" y2="538"/>
            <line clip-path="url(#clipPath2)" fill="none" x1="75" x2="75" y1="34" y2="36"/>
            <line clip-path="url(#clipPath2)" fill="none" x1="75" x2="75" y1="540" y2="538"/>
            <line clip-path="url(#clipPath2)" fill="none" x1="88" x2="88" y1="34" y2="36"/>
            <line clip-path="url(#clipPath2)" fill="none" x1="88" x2="88" y1="540" y2="538"/>
            <line clip-path="url(#clipPath2)" fill="none" x1="102" x2="102" y1="34" y2="36"/>
            <line clip-path="url(#clipPath2)" fill="none" x1="102" x2="102" y1="540" y2="538"/>
            <line clip-path="url(#clipPath2)" fill="none" x1="116" x2="116" y1="32" y2="36"/>
            <line clip-path="url(#clipPath2)" fill="none" x1="116" x2="116" y1="542" y2="538"/>
            <text x="105" font-size="10" y="28" clip-path="url(#clipPath2)" stroke="none" xml:space="preserve">0.10</text>
            <text x="105" font-size="10" y="553" clip-path="url(#clipPath2)" stroke="none" xml:space="preserve">0.10</text>
            <line clip-path="url(#clipPath2)" fill="none" x1="129" x2="129" y1="34" y2="36"/>
            <line clip-path="url(#clipPath2)" fill="none" x1="129" x2="129" y1="540" y2="538"/>
            <line clip-path="url(#clipPath2)" fill="none" x1="143" x2="143" y1="34" y2="36"/>
            <line clip-path="url(#clipPath2)" fill="none" x1="143" x2="143" y1="540" y2="538"/>
            <line clip-path="url(#clipPath2)" fill="none" x1="156" x2="156" y1="34" y2="36"/>
            <line clip-path="url(#clipPath2)" fill="none" x1="156" x2="156" y1="540" y2="538"/>
            <line clip-path="url(#clipPath2)" fill="none" x1="170" x2="170" y1="34" y2="36"/>
            <line clip-path="url(#clipPath2)" fill="none" x1="170" x2="170" y1="540" y2="538"/>
            <line clip-path="url(#clipPath2)" fill="none" x1="184" x2="184" y1="32" y2="36"/>
            <line clip-path="url(#clipPath2)" fill="none" x1="184" x2="184" y1="542" y2="538"/>
            <text x="173" font-size="10" y="28" clip-path="url(#clipPath2)" stroke="none" xml:space="preserve">0.20</text>
            <text x="173" font-size="10" y="553" clip-path="url(#clipPath2)" stroke="none" xml:space="preserve">0.20</text>
            <line clip-path="url(#clipPath2)" fill="none" x1="197" x2="197" y1="34" y2="36"/>
            <line clip-path="url(#clipPath2)" fill="none" x1="197" x2="197" y1="540" y2="538"/>
            <line clip-path="url(#clipPath2)" fill="none" x1="211" x2="211" y1="34" y2="36"/>
            <line clip-path="url(#clipPath2)" fill="none" x1="211" x2="211" y1="540" y2="538"/>
            <line clip-path="url(#clipPath2)" fill="none" x1="224" x2="224" y1="34" y2="36"/>
            <line clip-path="url(#clipPath2)" fill="none" x1="224" x2="224" y1="540" y2="538"/>
            <line clip-path="url(#clipPath2)" fill="none" x1="238" x2="238" y1="34" y2="36"/>
            <line clip-path="url(#clipPath2)" fill="none" x1="238" x2="238" y1="540" y2="538"/>
            <line clip-path="url(#clipPath2)" fill="none" x1="252" x2="252" y1="32" y2="36"/>
            <line clip-path="url(#clipPath2)" fill="none" x1="252" x2="252" y1="542" y2="538"/>
            <text x="241" font-size="10" y="28" clip-path="url(#clipPath2)" stroke="none" xml:space="preserve">0.30</text>
            <text x="241" font-size="10" y="553" clip-path="url(#clipPath2)" stroke="none" xml:space="preserve">0.30</text>
            <line clip-path="url(#clipPath2)" fill="none" x1="265" x2="265" y1="34" y2="36"/>
            <line clip-path="url(#clipPath2)" fill="none" x1="265" x2="265" y1="540" y2="538"/>
            <line clip-path="url(#clipPath2)" fill="none" x1="279" x2="279" y1="34" y2="36"/>
            <line clip-path="url(#clipPath2)" fill="none" x1="279" x2="279" y1="540" y2="538"/>
            <line clip-path="url(#clipPath2)" fill="none" x1="292" x2="292" y1="34" y2="36"/>
            <line clip-path="url(#clipPath2)" fill="none" x1="292" x2="292" y1="540" y2="538"/>
            <line clip-path="url(#clipPath2)" fill="none" x1="306" x2="306" y1="34" y2="36"/>
            <line clip-path="url(#clipPath2)" fill="none" x1="306" x2="306" y1="540" y2="538"/>
            <line clip-path="url(#clipPath2)" fill="none" x1="320" x2="320" y1="32" y2="36"/>
            <line clip-path="url(#clipPath2)" fill="none" x1="320" x2="320" y1="542" y2="538"/>
            <text x="309" font-size="10" y="28" clip-path="url(#clipPath2)" stroke="none" xml:space="preserve">0.40</text>
            <text x="309" font-size="10" y="553" clip-path="url(#clipPath2)" stroke="none" xml:space="preserve">0.40</text>
            <line clip-path="url(#clipPath2)" fill="none" x1="333" x2="333" y1="34" y2="36"/>
            <line clip-path="url(#clipPath2)" fill="none" x1="333" x2="333" y1="540" y2="538"/>
            <line clip-path="url(#clipPath2)" fill="none" x1="347" x2="347" y1="34" y2="36"/>
            <line clip-path="url(#clipPath2)" fill="none" x1="347" x2="347" y1="540" y2="538"/>
            <line clip-path="url(#clipPath2)" fill="none" x1="361" x2="361" y1="34" y2="36"/>
            <line clip-path="url(#clipPath2)" fill="none" x1="361" x2="361" y1="540" y2="538"/>
            <line clip-path="url(#clipPath2)" fill="none" x1="374" x2="374" y1="34" y2="36"/>
            <line clip-path="url(#clipPath2)" fill="none" x1="374" x2="374" y1="540" y2="538"/>
            <line clip-path="url(#clipPath2)" fill="none" x1="388" x2="388" y1="32" y2="36"/>
            <line clip-path="url(#clipPath2)" fill="none" x1="388" x2="388" y1="542" y2="538"/>
            <text x="377" font-size="10" y="28" clip-path="url(#clipPath2)" stroke="none" xml:space="preserve">0.50</text>
            <text x="377" font-size="10" y="553" clip-path="url(#clipPath2)" stroke="none" xml:space="preserve">0.50</text>
            <line clip-path="url(#clipPath2)" fill="none" x1="401" x2="401" y1="34" y2="36"/>
            <line clip-path="url(#clipPath2)" fill="none" x1="401" x2="401" y1="540" y2="538"/>
            <line clip-path="url(#clipPath2)" fill="none" x1="415" x2="415" y1="34" y2="36"/>
            <line clip-path="url(#clipPath2)" fill="none" x1="415" x2="415" y1="540" y2="538"/>
            <line clip-path="url(#clipPath2)" fill="none" x1="429" x2="429" y1="34" y2="36"/>
            <line clip-path="url(#clipPath2)" fill="none" x1="429" x2="429" y1="540" y2="538"/>
            <line clip-path="url(#clipPath2)" fill="none" x1="442" x2="442" y1="34" y2="36"/>
            <line clip-path="url(#clipPath2)" fill="none" x1="442" x2="442" y1="540" y2="538"/>
            <line clip-path="url(#clipPath2)" fill="none" x1="456" x2="456" y1="32" y2="36"/>
            <line clip-path="url(#clipPath2)" fill="none" x1="456" x2="456" y1="542" y2="538"/>
            <text x="445" font-size="10" y="28" clip-path="url(#clipPath2)" stroke="none" xml:space="preserve">0.60</text>
            <text x="445" font-size="10" y="553" clip-path="url(#clipPath2)" stroke="none" xml:space="preserve">0.60</text>
            <line clip-path="url(#clipPath2)" fill="none" x1="469" x2="469" y1="34" y2="36"/>
            <line clip-path="url(#clipPath2)" fill="none" x1="469" x2="469" y1="540" y2="538"/>
            <line clip-path="url(#clipPath2)" fill="none" x1="483" x2="483" y1="34" y2="36"/>
            <line clip-path="url(#clipPath2)" fill="none" x1="483" x2="483" y1="540" y2="538"/>
            <line clip-path="url(#clipPath2)" fill="none" x1="497" x2="497" y1="34" y2="36"/>
            <line clip-path="url(#clipPath2)" fill="none" x1="497" x2="497" y1="540" y2="538"/>
            <line clip-path="url(#clipPath2)" fill="none" x1="510" x2="510" y1="34" y2="36"/>
            <line clip-path="url(#clipPath2)" fill="none" x1="510" x2="510" y1="540" y2="538"/>
            <line clip-path="url(#clipPath2)" fill="none" x1="524" x2="524" y1="32" y2="36"/>
            <line clip-path="url(#clipPath2)" fill="none" x1="524" x2="524" y1="542" y2="538"/>
            <text x="513" font-size="10" y="28" clip-path="url(#clipPath2)" stroke="none" xml:space="preserve">0.70</text>
            <text x="513" font-size="10" y="553" clip-path="url(#clipPath2)" stroke="none" xml:space="preserve">0.70</text>
            <line clip-path="url(#clipPath2)" fill="none" x1="537" x2="537" y1="34" y2="36"/>
            <line clip-path="url(#clipPath2)" fill="none" x1="537" x2="537" y1="540" y2="538"/>
            <line clip-path="url(#clipPath2)" fill="none" x1="551" x2="551" y1="34" y2="36"/>
            <line clip-path="url(#clipPath2)" fill="none" x1="551" x2="551" y1="540" y2="538"/>
            <line clip-path="url(#clipPath2)" fill="none" x1="565" x2="565" y1="34" y2="36"/>
            <line clip-path="url(#clipPath2)" fill="none" x1="565" x2="565" y1="540" y2="538"/>
            <line clip-path="url(#clipPath2)" fill="none" x1="578" x2="578" y1="34" y2="36"/>
            <line clip-path="url(#clipPath2)" fill="none" x1="578" x2="578" y1="540" y2="538"/>
            <line clip-path="url(#clipPath2)" fill="none" x1="592" x2="592" y1="32" y2="36"/>
            <line clip-path="url(#clipPath2)" fill="none" x1="592" x2="592" y1="542" y2="538"/>
            <text x="581" font-size="10" y="28" clip-path="url(#clipPath2)" stroke="none" xml:space="preserve">0.80</text>
            <text x="581" font-size="10" y="553" clip-path="url(#clipPath2)" stroke="none" xml:space="preserve">0.80</text>
            <line clip-path="url(#clipPath2)" fill="none" x1="606" x2="606" y1="34" y2="36"/>
            <line clip-path="url(#clipPath2)" fill="none" x1="606" x2="606" y1="540" y2="538"/>
            <line clip-path="url(#clipPath2)" fill="none" x1="619" x2="619" y1="34" y2="36"/>
            <line clip-path="url(#clipPath2)" fill="none" x1="619" x2="619" y1="540" y2="538"/>
            <line clip-path="url(#clipPath2)" fill="none" x1="633" x2="633" y1="34" y2="36"/>
            <line clip-path="url(#clipPath2)" fill="none" x1="633" x2="633" y1="540" y2="538"/>
            <line clip-path="url(#clipPath2)" fill="none" x1="646" x2="646" y1="34" y2="36"/>
            <line clip-path="url(#clipPath2)" fill="none" x1="646" x2="646" y1="540" y2="538"/>
            <line clip-path="url(#clipPath2)" fill="none" x1="660" x2="660" y1="32" y2="36"/>
            <line clip-path="url(#clipPath2)" fill="none" x1="660" x2="660" y1="542" y2="538"/>
            <text x="649" font-size="10" y="28" clip-path="url(#clipPath2)" stroke="none" xml:space="preserve">0.90</text>
            <text x="649" font-size="10" y="553" clip-path="url(#clipPath2)" stroke="none" xml:space="preserve">0.90</text>
            <line clip-path="url(#clipPath2)" fill="none" x1="674" x2="674" y1="34" y2="36"/>
            <line clip-path="url(#clipPath2)" fill="none" x1="674" x2="674" y1="540" y2="538"/>
            <line clip-path="url(#clipPath2)" fill="none" x1="687" x2="687" y1="34" y2="36"/>
            <line clip-path="url(#clipPath2)" fill="none" x1="687" x2="687" y1="540" y2="538"/>
            <line clip-path="url(#clipPath2)" fill="none" x1="701" x2="701" y1="34" y2="36"/>
            <line clip-path="url(#clipPath2)" fill="none" x1="701" x2="701" y1="540" y2="538"/>
            <line clip-path="url(#clipPath2)" fill="none" x1="714" x2="714" y1="34" y2="36"/>
            <line clip-path="url(#clipPath2)" fill="none" x1="714" x2="714" y1="540" y2="538"/>
            <line clip-path="url(#clipPath2)" fill="none" x1="728" x2="728" y1="32" y2="36"/>
            <line clip-path="url(#clipPath2)" fill="none" x1="728" x2="728" y1="542" y2="538"/>
            <text x="717" font-size="10" y="28" clip-path="url(#clipPath2)" stroke="none" xml:space="preserve">1.00</text>
            <text x="717" font-size="10" y="553" clip-path="url(#clipPath2)" stroke="none" xml:space="preserve">1.00</text>
            <line clip-path="url(#clipPath2)" fill="none" x1="46" x2="46" y1="38" y2="536"/>
            <line clip-path="url(#clipPath2)" fill="none" x1="739" x2="739" y1="38" y2="536"/>
            <line clip-path="url(#clipPath2)" fill="none" x1="42" x2="46" y1="536" y2="536"/>
            <line clip-path="url(#clipPath2)" fill="none" x1="743" x2="739" y1="536" y2="536"/>
            <text x="35" font-size="10" y="540" clip-path="url(#clipPath2)" stroke="none" xml:space="preserve">0</text>
            <text x="746" font-size="10" y="540" clip-path="url(#clipPath2)" stroke="none" xml:space="preserve">0</text>
            <line clip-path="url(#clipPath2)" fill="none" x1="44" x2="46" y1="498" y2="498"/>
            <line clip-path="url(#clipPath2)" fill="none" x1="741" x2="739" y1="498" y2="498"/>
            <line clip-path="url(#clipPath2)" fill="none" x1="42" x2="46" y1="461" y2="461"/>
            <line clip-path="url(#clipPath2)" fill="none" x1="743" x2="739" y1="461" y2="461"/>
            <text x="23" font-size="10" y="465" clip-path="url(#clipPath2)" stroke="none" xml:space="preserve">0.2</text>
            <text x="746" font-size="10" y="465" clip-path="url(#clipPath2)" stroke="none" xml:space="preserve">0.2</text>
            <line clip-path="url(#clipPath2)" fill="none" x1="44" x2="46" y1="423" y2="423"/>
            <line clip-path="url(#clipPath2)" fill="none" x1="741" x2="739" y1="423" y2="423"/>
            <line clip-path="url(#clipPath2)" fill="none" x1="42" x2="46" y1="386" y2="386"/>
            <line clip-path="url(#clipPath2)" fill="none" x1="743" x2="739" y1="386" y2="386"/>
            <text x="23" font-size="10" y="390" clip-path="url(#clipPath2)" stroke="none" xml:space="preserve">0.4</text>
            <text x="746" font-size="10" y="390" clip-path="url(#clipPath2)" stroke="none" xml:space="preserve">0.4</text>
            <line clip-path="url(#clipPath2)" fill="none" x1="44" x2="46" y1="349" y2="349"/>
            <line clip-path="url(#clipPath2)" fill="none" x1="741" x2="739" y1="349" y2="349"/>
            <line clip-path="url(#clipPath2)" fill="none" x1="42" x2="46" y1="311" y2="311"/>
            <line clip-path="url(#clipPath2)" fill="none" x1="743" x2="739" y1="311" y2="311"/>
            <text x="23" font-size="10" y="315" clip-path="url(#clipPath2)" stroke="none" xml:space="preserve">0.6</text>
            <text x="746" font-size="10" y="315" clip-path="url(#clipPath2)" stroke="none" xml:space="preserve">0.6</text>
            <line clip-path="url(#clipPath2)" fill="none" x1="44" x2="46" y1="274" y2="274"/>
            <line clip-path="url(#clipPath2)" fill="none" x1="741" x2="739" y1="274" y2="274"/>
            <line clip-path="url(#clipPath2)" fill="none" x1="42" x2="46" y1="237" y2="237"/>
            <line clip-path="url(#clipPath2)" fill="none" x1="743" x2="739" y1="237" y2="237"/>
            <text x="23" font-size="10" y="241" clip-path="url(#clipPath2)" stroke="none" xml:space="preserve">0.8</text>
            <text x="746" font-size="10" y="241" clip-path="url(#clipPath2)" stroke="none" xml:space="preserve">0.8</text>
            <line clip-path="url(#clipPath2)" fill="none" x1="44" x2="46" y1="199" y2="199"/>
            <line clip-path="url(#clipPath2)" fill="none" x1="741" x2="739" y1="199" y2="199"/>
            <line clip-path="url(#clipPath2)" fill="none" x1="42" x2="46" y1="162" y2="162"/>
            <line clip-path="url(#clipPath2)" fill="none" x1="743" x2="739" y1="162" y2="162"/>
            <text x="23" font-size="10" y="166" clip-path="url(#clipPath2)" stroke="none" xml:space="preserve">1.0</text>
            <text x="746" font-size="10" y="166" clip-path="url(#clipPath2)" stroke="none" xml:space="preserve">1.0</text>
            <line clip-path="url(#clipPath2)" fill="none" x1="44" x2="46" y1="125" y2="125"/>
            <line clip-path="url(#clipPath2)" fill="none" x1="741" x2="739" y1="125" y2="125"/>
            <line clip-path="url(#clipPath2)" fill="none" x1="42" x2="46" y1="87" y2="87"/>
            <line clip-path="url(#clipPath2)" fill="none" x1="743" x2="739" y1="87" y2="87"/>
            <text x="23" font-size="10" y="91" clip-path="url(#clipPath2)" stroke="none" xml:space="preserve">1.2</text>
            <text x="746" font-size="10" y="91" clip-path="url(#clipPath2)" stroke="none" xml:space="preserve">1.2</text>
            <line clip-path="url(#clipPath2)" fill="none" x1="44" x2="46" y1="50" y2="50"/>
            <line clip-path="url(#clipPath2)" fill="none" x1="741" x2="739" y1="50" y2="50"/>
        </g>
    </g>
</svg>
